<svg xmlns="http://www.w3.org/2000/svg" height="512" width="1024" version="1.1"><style>.s0{baseline-shift:baseline;block-progression:tb;direction:ltr;text-align:start;text-indent:0;text-transform:none;}</style><defs><clipPath clipPathUnits="userSpaceOnUse"><path d="m0 324.29 1267.44 0v-324.29h-1267.44v324.29z"/></clipPath></defs><g transform="translate(0,264)"><g fill="#EEE" transform="matrix(1.5279851,0,0,-1.5279851,-901.28037,366.28355)"><g fill="#EEE" clip-path="url(#clipPath314)"><g fill="#EEE" transform="translate(635.333,185.4839)"><path fill="#EEE" d="m2.41-105.44c-1.04-0.05-2.19 0-3.44 0.16-3.97 0.49-7.1 2.42-8.87 3.91-2.89 2.42-4.68 5.56-5.62 7.44-3.79 7.56-5.98 13.3-6.41 18.84-23.71 27.33-26.47 68.37-4.5 98.88 25.66 35.62 75.73 43.75 111.34 18.09 35.62-25.66 43.79-75.75 18.13-111.37-1.46-2.03-2.98-3.92-4.56-5.72-0.45-5.47-2.6-11.15-6.31-18.66-0.82-1.66-2.59-4.95-5.69-7.5-1.9-1.57-5.12-3.48-9.28-3.84-5.04-0.44-8.1 0.71-11.59 3.41-1.16 0.89-2.1 2.01-2.94 3.16-15.84-5.18-32.72-5.14-48.53 0-0.98-1.33-2.09-2.66-3.5-3.66-2.72-1.93-5.09-2.98-8.22-3.12z" class="s0"/></g></g></g></g><g transform="translate(0,264)"><g fill-rule="nonzero" fill="#333" transform="matrix(1.5279851,0,0,-1.5279851,-645.28037,366.28355)"><g fill-rule="nonzero" fill="#333" clip-path="url(#clipPath314)"><g fill-rule="nonzero" fill="#333" transform="translate(635.333,185.4839)"><path d="m0.53-92.56c-0.96 0.12-1.68 0.55-2.22 1-1.07 0.9-1.69 1.92-2.41 3.34-4.45 8.88-5.45 13.24-5.09 16.38 0.06 0.52 0.25 0.94 0.41 1.38-23.1 22.8-26.83 59.65-7.28 86.78 21.61 29.99 63.51 36.8 93.5 15.19 29.99-21.61 36.83-63.54 15.22-93.53-2.21-3.07-4.68-5.86-7.28-8.44 0.15-0.44 0.32-0.85 0.38-1.37 0.33-3.1-0.67-7.46-5.06-16.34-0.69-1.39-1.26-2.42-2.34-3.31-0.54-0.45-1.3-0.88-2.28-0.97-0.98-0.09-2.03 0.3-2.66 0.78-1.26 0.97-1.53 1.95-1.84 2.91-0.32 0.95-0.52 1.95-0.69 3-0.23 1.46-0.28 2.9-0.37 4.31-20.29-11.36-43.9-11.28-64.19-0.09-0.1-1.44-0.17-2.9-0.41-4.37-0.17-1.05-0.38-2.07-0.72-3.03-0.33-0.96-0.64-1.96-1.97-2.91-0.66-0.47-1.73-0.8-2.69-0.69z" fill-rule="nonzero" fill="#333" class="s0"/></g></g></g></g><g transform="translate(0,264)"><g fill="#EEE" transform="matrix(1.5279851,0,0,-1.5279851,-389.28037,366.28355)"><g fill="#EEE" clip-path="url(#clipPath314)"><g fill="#EEE" transform="translate(635.333,185.4839)"><path d="m38.28-79.41c13.55 0 23.22 3.89 30.16 9.84 6.94 5.95 11.2 14.11 13.34 22.91 2.14 8.79 2.14 18.19 0.59 26.28-1.44 7.53-4.31 13.76-7.47 17.38h-73.47c-3.14-3.6-5.92-9.85-7.28-17.37-1.46-8.08-1.4-17.48 0.81-26.28 2.22-8.8 6.54-16.95 13.47-22.91 6.93-5.96 16.5-9.84 29.84-9.84z" fill="#EEE" class="s0"/></g></g></g></g><g transform="translate(0,264)"><g fill="#333" transform="matrix(1.5279851,0,0,-1.5279851,-133.28037,366.28355)"><g fill="#333" clip-path="url(#clipPath314)"><g fill="#333" transform="translate(693.4004,125.5991)"><path d="M-20.78-13.16c-5.31 0.16-10.6 1.83-15.22 5.16-12.31 8.87-15.12 26.12-6.25 38.44 8.87 12.31 26.12 15.12 38.44 6.25 12.31-8.87 15.12-26.12 6.25-38.44-5.54-7.7-14.38-11.67-23.22-11.41z" fill="#333" class="s0"/></g></g></g></g><g transform="translate(0,264)"><path d="m97.6-192.34c-3.89-0.08-7.49 3.44-7.49 7.33v97.79c0 2.55 1.44 5.06 3.65 6.34 2.21 1.28 5.1 1.3 7.32 0.04l85.57-48.9c2.24-1.27 3.71-3.8 3.71-6.38s-1.47-5.11-3.71-6.38l-85.57-48.9c-1.06-0.6-2.26-0.93-3.48-0.95z" fill-rule="nonzero" fill="#EEE" class="s0"/></g><g fill-rule="nonzero" transform="translate(256,0)" fill="#EEE"><path d="m80 80a8 8 0 0 0-8 8v80a8 8 0 0 0 8 8h16a8 8 0 0 0 8-8v-80a8 8 0 0 0-8-8h-16zM160 80a8 8 0 0 0-8 8v80a8 8 0 0 0 8 8h16a8 8 0 0 0 8-8v-80a8 8 0 0 0-8-8h-16z" class="s0"/></g><g fill="#c83737" transform="translate(512,8)"><path d="M79.84 55.84a16 16 0 0 0-11.16 27.47l96 96a16 16 0 1 0 22.63-22.62l-96-96a16 16 0 0 0-11.47-4.84zM175.69 55.84a16 16 0 0 0-11 4.84l-96 96a16 16 0 1 0 22.63 22.63l96-96a16 16 0 0 0-11.62-27.47z" class="s0"/></g><g transform="translate(0,256)"><g fill="#333" transform="translate(768,-256)"><path d="m95.91 119.91a8 8 0 0 0-5.56 13.75l64 64a8 8 0 1 0 11.31-11.31l-64-64a8 8 0 0 0-5.75-2.44zM159.84 119.94a8 8 0 0 0-5.5 2.41l-64 64a8 8 0 1 0 11.31 11.31l64-64a8 8 0 0 0-5.81-13.72z" class="s0"/></g></g></svg>